<mxfile host="app.diagrams.net" modified="2021-08-18T05:33:38.736Z" agent="5.0 (Windows NT 10.0; Win64; x64) AppleWebKit/537.36 (KHTML, like Gecko) Chrome/91.0.4472.124 Safari/537.36" etag="q94wN9SWJfHYUvvbiEle" version="14.9.7" type="github">
  <diagram id="Rxotb_wk2aPIgc0Fl-tH" name="第 1 页">
    <mxGraphModel dx="1422" dy="804" grid="1" gridSize="10" guides="1" tooltips="1" connect="1" arrows="1" fold="1" page="1" pageScale="1" pageWidth="827" pageHeight="1169" math="0" shadow="0">
      <root>
        <mxCell id="0" />
        <mxCell id="1" parent="0" />
        <mxCell id="UCDx3bMuPGinTcXjJKAO-4" value="" style="rounded=0;whiteSpace=wrap;html=1;" parent="1" vertex="1">
          <mxGeometry x="310" y="270" width="120" height="60" as="geometry" />
        </mxCell>
        <mxCell id="UCDx3bMuPGinTcXjJKAO-7" style="edgeStyle=orthogonalEdgeStyle;rounded=0;orthogonalLoop=1;jettySize=auto;html=1;exitX=1;exitY=0.5;exitDx=0;exitDy=0;" parent="1" source="UCDx3bMuPGinTcXjJKAO-1" edge="1">
          <mxGeometry relative="1" as="geometry">
            <mxPoint x="330" y="175" as="targetPoint" />
          </mxGeometry>
        </mxCell>
        <mxCell id="UCDx3bMuPGinTcXjJKAO-1" value="ThreadLocal" style="rounded=1;whiteSpace=wrap;html=1;" parent="1" vertex="1">
          <mxGeometry x="150" y="160" width="100" height="30" as="geometry" />
        </mxCell>
        <mxCell id="UCDx3bMuPGinTcXjJKAO-3" value="Thread" style="rounded=1;whiteSpace=wrap;html=1;" parent="1" vertex="1">
          <mxGeometry x="310" y="260" width="53" height="20" as="geometry" />
        </mxCell>
        <mxCell id="UCDx3bMuPGinTcXjJKAO-5" value="ThreadLocalMap" style="rounded=1;whiteSpace=wrap;html=1;" parent="1" vertex="1">
          <mxGeometry x="313.5" y="300" width="113" height="20" as="geometry" />
        </mxCell>
        <mxCell id="UCDx3bMuPGinTcXjJKAO-9" style="edgeStyle=orthogonalEdgeStyle;rounded=0;orthogonalLoop=1;jettySize=auto;html=1;exitX=1;exitY=0.5;exitDx=0;exitDy=0;entryX=1;entryY=0.75;entryDx=0;entryDy=0;" parent="1" source="UCDx3bMuPGinTcXjJKAO-8" target="UCDx3bMuPGinTcXjJKAO-4" edge="1">
          <mxGeometry relative="1" as="geometry" />
        </mxCell>
        <mxCell id="UCDx3bMuPGinTcXjJKAO-10" value="key: ThreadLocal对象" style="edgeLabel;html=1;align=center;verticalAlign=middle;resizable=0;points=[];" parent="UCDx3bMuPGinTcXjJKAO-9" vertex="1" connectable="0">
          <mxGeometry x="0.3182" y="-2" relative="1" as="geometry">
            <mxPoint x="18" y="-30" as="offset" />
          </mxGeometry>
        </mxCell>
        <mxCell id="UCDx3bMuPGinTcXjJKAO-11" value="value: 设置的值" style="edgeLabel;html=1;align=center;verticalAlign=middle;resizable=0;points=[];" parent="UCDx3bMuPGinTcXjJKAO-9" vertex="1" connectable="0">
          <mxGeometry x="0.4455" relative="1" as="geometry">
            <mxPoint y="-24" as="offset" />
          </mxGeometry>
        </mxCell>
        <mxCell id="UCDx3bMuPGinTcXjJKAO-8" value="set方法" style="rounded=1;whiteSpace=wrap;html=1;" parent="1" vertex="1">
          <mxGeometry x="330" y="165" width="60" height="20" as="geometry" />
        </mxCell>
        <mxCell id="UCDx3bMuPGinTcXjJKAO-12" value="ThreadLocal 设置的变量存放在了 线程内部" style="text;html=1;align=center;verticalAlign=middle;resizable=0;points=[];autosize=1;strokeColor=none;" parent="1" vertex="1">
          <mxGeometry x="313.5" y="350" width="240" height="20" as="geometry" />
        </mxCell>
        <mxCell id="UCDx3bMuPGinTcXjJKAO-13" value="每个线程内部都有一个名为thredLocals 的成员变量 ， 该变量的类型为HashMap , key 为定义的ThreadLocal变量的this 引用 ， value则为设置的值" style="text;html=1;strokeColor=none;fillColor=none;align=left;verticalAlign=middle;whiteSpace=wrap;rounded=0;" parent="1" vertex="1">
          <mxGeometry x="590" y="190" width="200" height="40" as="geometry" />
        </mxCell>
        <mxCell id="UCDx3bMuPGinTcXjJKAO-20" style="edgeStyle=orthogonalEdgeStyle;rounded=0;orthogonalLoop=1;jettySize=auto;html=1;exitX=0.25;exitY=0;exitDx=0;exitDy=0;entryX=0.5;entryY=1;entryDx=0;entryDy=0;" parent="1" source="UCDx3bMuPGinTcXjJKAO-15" target="UCDx3bMuPGinTcXjJKAO-16" edge="1">
          <mxGeometry relative="1" as="geometry" />
        </mxCell>
        <mxCell id="UCDx3bMuPGinTcXjJKAO-22" style="edgeStyle=orthogonalEdgeStyle;rounded=0;orthogonalLoop=1;jettySize=auto;html=1;exitX=0.75;exitY=0;exitDx=0;exitDy=0;entryX=0.45;entryY=0.98;entryDx=0;entryDy=0;entryPerimeter=0;" parent="1" source="UCDx3bMuPGinTcXjJKAO-15" target="UCDx3bMuPGinTcXjJKAO-18" edge="1">
          <mxGeometry relative="1" as="geometry" />
        </mxCell>
        <mxCell id="UCDx3bMuPGinTcXjJKAO-15" value="主内存" style="rounded=1;whiteSpace=wrap;html=1;align=center;" parent="1" vertex="1">
          <mxGeometry x="55" y="615" width="290" height="60" as="geometry" />
        </mxCell>
        <mxCell id="UCDx3bMuPGinTcXjJKAO-21" style="edgeStyle=orthogonalEdgeStyle;rounded=0;orthogonalLoop=1;jettySize=auto;html=1;exitX=0.5;exitY=0;exitDx=0;exitDy=0;entryX=0.5;entryY=1;entryDx=0;entryDy=0;" parent="1" source="UCDx3bMuPGinTcXjJKAO-16" target="UCDx3bMuPGinTcXjJKAO-17" edge="1">
          <mxGeometry relative="1" as="geometry" />
        </mxCell>
        <mxCell id="UCDx3bMuPGinTcXjJKAO-16" value="工作内存" style="rounded=1;whiteSpace=wrap;html=1;align=center;" parent="1" vertex="1">
          <mxGeometry x="65" y="530" width="110" height="50" as="geometry" />
        </mxCell>
        <mxCell id="UCDx3bMuPGinTcXjJKAO-17" value="线程A" style="rounded=1;whiteSpace=wrap;html=1;align=center;" parent="1" vertex="1">
          <mxGeometry x="65" y="450" width="110" height="50" as="geometry" />
        </mxCell>
        <mxCell id="UCDx3bMuPGinTcXjJKAO-23" style="edgeStyle=orthogonalEdgeStyle;rounded=0;orthogonalLoop=1;jettySize=auto;html=1;exitX=0.5;exitY=0;exitDx=0;exitDy=0;entryX=0.5;entryY=1;entryDx=0;entryDy=0;" parent="1" source="UCDx3bMuPGinTcXjJKAO-18" target="UCDx3bMuPGinTcXjJKAO-19" edge="1">
          <mxGeometry relative="1" as="geometry" />
        </mxCell>
        <mxCell id="UCDx3bMuPGinTcXjJKAO-18" value="工作内存" style="rounded=1;whiteSpace=wrap;html=1;align=center;" parent="1" vertex="1">
          <mxGeometry x="221.5" y="530" width="110" height="50" as="geometry" />
        </mxCell>
        <mxCell id="UCDx3bMuPGinTcXjJKAO-19" value="线程B" style="rounded=1;whiteSpace=wrap;html=1;align=center;" parent="1" vertex="1">
          <mxGeometry x="221.5" y="450" width="110" height="50" as="geometry" />
        </mxCell>
        <mxCell id="UCDx3bMuPGinTcXjJKAO-24" value="&lt;p style=&quot;line-height: 180%&quot;&gt;所有的共享变量都存放在主内存中，&amp;nbsp; &amp;nbsp;当线程使用变量时， 会把主内存里面的变量复制到自己的工作空间中或者叫工作内存中，线程读写变量操作的是自己工作内存中的变量，Java内存模型是一个抽象的概念。&lt;/p&gt;" style="text;html=1;strokeColor=none;fillColor=none;align=left;verticalAlign=top;whiteSpace=wrap;rounded=0;spacingTop=3;" parent="1" vertex="1">
          <mxGeometry x="390" y="492.5" width="290" height="125" as="geometry" />
        </mxCell>
        <mxCell id="UCDx3bMuPGinTcXjJKAO-25" value="主内存" style="rounded=1;whiteSpace=wrap;html=1;align=center;verticalAlign=middle;" parent="1" vertex="1">
          <mxGeometry x="84" y="950" width="330" height="60" as="geometry" />
        </mxCell>
        <mxCell id="UCDx3bMuPGinTcXjJKAO-26" value="共享变量1" style="ellipse;whiteSpace=wrap;html=1;align=center;verticalAlign=middle;" parent="1" vertex="1">
          <mxGeometry x="104" y="960" width="90" height="40" as="geometry" />
        </mxCell>
        <mxCell id="UCDx3bMuPGinTcXjJKAO-27" value="共享变量2" style="ellipse;whiteSpace=wrap;html=1;align=center;verticalAlign=middle;" parent="1" vertex="1">
          <mxGeometry x="302.5" y="960" width="90" height="40" as="geometry" />
        </mxCell>
        <mxCell id="UCDx3bMuPGinTcXjJKAO-28" value="L2 Cache" style="rounded=1;whiteSpace=wrap;html=1;align=center;verticalAlign=middle;" parent="1" vertex="1">
          <mxGeometry x="84" y="920" width="326" height="30" as="geometry" />
        </mxCell>
        <mxCell id="UCDx3bMuPGinTcXjJKAO-29" value="" style="rounded=0;whiteSpace=wrap;html=1;align=center;verticalAlign=middle;" parent="1" vertex="1">
          <mxGeometry x="86" y="840" width="126" height="70" as="geometry" />
        </mxCell>
        <mxCell id="UCDx3bMuPGinTcXjJKAO-30" value="线程A" style="rounded=0;whiteSpace=wrap;html=1;align=center;verticalAlign=middle;" parent="1" vertex="1">
          <mxGeometry x="84" y="830" width="41" height="20" as="geometry" />
        </mxCell>
        <mxCell id="UCDx3bMuPGinTcXjJKAO-31" value="" style="rounded=0;whiteSpace=wrap;html=1;align=center;verticalAlign=middle;" parent="1" vertex="1">
          <mxGeometry x="222" y="840" width="126" height="70" as="geometry" />
        </mxCell>
        <mxCell id="UCDx3bMuPGinTcXjJKAO-32" value="线程B" style="rounded=0;whiteSpace=wrap;html=1;align=center;verticalAlign=middle;" parent="1" vertex="1">
          <mxGeometry x="220" y="830" width="41" height="20" as="geometry" />
        </mxCell>
        <mxCell id="UCDx3bMuPGinTcXjJKAO-36" style="edgeStyle=orthogonalEdgeStyle;rounded=0;orthogonalLoop=1;jettySize=auto;html=1;exitX=0;exitY=0.5;exitDx=0;exitDy=0;" parent="1" source="UCDx3bMuPGinTcXjJKAO-33" edge="1">
          <mxGeometry relative="1" as="geometry">
            <mxPoint x="70" y="870" as="targetPoint" />
          </mxGeometry>
        </mxCell>
        <mxCell id="UCDx3bMuPGinTcXjJKAO-33" value="控制器" style="rounded=1;whiteSpace=wrap;html=1;align=center;verticalAlign=middle;" parent="1" vertex="1">
          <mxGeometry x="89" y="855" width="54" height="30" as="geometry" />
        </mxCell>
        <mxCell id="UCDx3bMuPGinTcXjJKAO-38" style="edgeStyle=orthogonalEdgeStyle;rounded=0;orthogonalLoop=1;jettySize=auto;html=1;exitX=0.5;exitY=0;exitDx=0;exitDy=0;" parent="1" source="UCDx3bMuPGinTcXjJKAO-34" edge="1">
          <mxGeometry relative="1" as="geometry">
            <mxPoint x="170" y="820" as="targetPoint" />
          </mxGeometry>
        </mxCell>
        <mxCell id="UCDx3bMuPGinTcXjJKAO-34" value="运算器" style="rounded=1;whiteSpace=wrap;html=1;align=center;verticalAlign=middle;" parent="1" vertex="1">
          <mxGeometry x="143" y="855" width="54" height="30" as="geometry" />
        </mxCell>
        <mxCell id="UCDx3bMuPGinTcXjJKAO-35" value="L1 Cahce" style="rounded=1;whiteSpace=wrap;html=1;align=center;verticalAlign=middle;" parent="1" vertex="1">
          <mxGeometry x="89" y="888" width="111" height="20" as="geometry" />
        </mxCell>
        <mxCell id="UCDx3bMuPGinTcXjJKAO-37" value="寄存器&lt;br&gt;操作控制器" style="text;html=1;align=center;verticalAlign=middle;resizable=0;points=[];autosize=1;strokeColor=none;" parent="1" vertex="1">
          <mxGeometry y="860" width="80" height="30" as="geometry" />
        </mxCell>
        <mxCell id="UCDx3bMuPGinTcXjJKAO-39" value="执行算术逻辑运算" style="text;html=1;align=center;verticalAlign=middle;resizable=0;points=[];autosize=1;strokeColor=none;" parent="1" vertex="1">
          <mxGeometry x="105" y="790" width="110" height="20" as="geometry" />
        </mxCell>
        <mxCell id="UCDx3bMuPGinTcXjJKAO-40" value="当一个线程操作共享变量时，它首先从主内存复制共享变量到自己的工作内存中" style="text;html=1;align=center;verticalAlign=middle;resizable=0;points=[];autosize=1;strokeColor=none;" parent="1" vertex="1">
          <mxGeometry x="387" y="840" width="440" height="20" as="geometry" />
        </mxCell>
        <mxCell id="UCDx3bMuPGinTcXjJKAO-41" value="然后对工作内存中的变量进行操作， 处理完后将变量值更新到主内存中" style="text;html=1;align=center;verticalAlign=middle;resizable=0;points=[];autosize=1;strokeColor=none;" parent="1" vertex="1">
          <mxGeometry x="390" y="870" width="390" height="20" as="geometry" />
        </mxCell>
        <mxCell id="_pcO5hH8w6n7fQgWkxgX-1" value="Synchronized&amp;nbsp; &amp;nbsp;会有上下文切换的开销" style="text;html=1;align=center;verticalAlign=middle;resizable=0;points=[];autosize=1;strokeColor=none;" parent="1" vertex="1">
          <mxGeometry x="39" y="1080" width="220" height="20" as="geometry" />
        </mxCell>
        <mxCell id="_pcO5hH8w6n7fQgWkxgX-2" value="volatile&amp;nbsp; 虽然保证了可见性，但是并不保证原子性" style="text;html=1;align=center;verticalAlign=middle;resizable=0;points=[];autosize=1;strokeColor=none;" parent="1" vertex="1">
          <mxGeometry x="39" y="1110" width="280" height="20" as="geometry" />
        </mxCell>
        <mxCell id="W_dLFb4CMjLGKehjsULo-1" value="" style="rounded=1;whiteSpace=wrap;html=1;" vertex="1" parent="1">
          <mxGeometry x="270" y="1310" width="312" height="50" as="geometry" />
        </mxCell>
        <mxCell id="W_dLFb4CMjLGKehjsULo-2" value="原子变量" style="ellipse;whiteSpace=wrap;html=1;" vertex="1" parent="1">
          <mxGeometry x="331.5" y="1315" width="106" height="40" as="geometry" />
        </mxCell>
        <mxCell id="W_dLFb4CMjLGKehjsULo-3" value="AtomicLong" style="text;html=1;strokeColor=none;fillColor=none;align=center;verticalAlign=middle;whiteSpace=wrap;rounded=0;" vertex="1" parent="1">
          <mxGeometry x="500" y="1325" width="40" height="20" as="geometry" />
        </mxCell>
        <mxCell id="W_dLFb4CMjLGKehjsULo-8" style="rounded=0;orthogonalLoop=1;jettySize=auto;html=1;exitX=0.5;exitY=1;exitDx=0;exitDy=0;entryX=0.25;entryY=0;entryDx=0;entryDy=0;" edge="1" parent="1" source="W_dLFb4CMjLGKehjsULo-4" target="W_dLFb4CMjLGKehjsULo-1">
          <mxGeometry relative="1" as="geometry" />
        </mxCell>
        <mxCell id="W_dLFb4CMjLGKehjsULo-4" value="线程1" style="ellipse;whiteSpace=wrap;html=1;" vertex="1" parent="1">
          <mxGeometry x="277" y="1210" width="73" height="30" as="geometry" />
        </mxCell>
        <mxCell id="W_dLFb4CMjLGKehjsULo-9" style="edgeStyle=none;rounded=0;orthogonalLoop=1;jettySize=auto;html=1;exitX=0.5;exitY=1;exitDx=0;exitDy=0;entryX=0.346;entryY=-0.02;entryDx=0;entryDy=0;entryPerimeter=0;" edge="1" parent="1" source="W_dLFb4CMjLGKehjsULo-5" target="W_dLFb4CMjLGKehjsULo-1">
          <mxGeometry relative="1" as="geometry" />
        </mxCell>
        <mxCell id="W_dLFb4CMjLGKehjsULo-5" value="线程2" style="ellipse;whiteSpace=wrap;html=1;" vertex="1" parent="1">
          <mxGeometry x="337" y="1210" width="73" height="30" as="geometry" />
        </mxCell>
        <mxCell id="W_dLFb4CMjLGKehjsULo-10" style="edgeStyle=none;rounded=0;orthogonalLoop=1;jettySize=auto;html=1;exitX=0.5;exitY=1;exitDx=0;exitDy=0;" edge="1" parent="1" source="W_dLFb4CMjLGKehjsULo-6">
          <mxGeometry relative="1" as="geometry">
            <mxPoint x="400" y="1309" as="targetPoint" />
          </mxGeometry>
        </mxCell>
        <mxCell id="W_dLFb4CMjLGKehjsULo-6" value="线程3" style="ellipse;whiteSpace=wrap;html=1;" vertex="1" parent="1">
          <mxGeometry x="397" y="1210" width="73" height="30" as="geometry" />
        </mxCell>
        <mxCell id="W_dLFb4CMjLGKehjsULo-11" style="edgeStyle=none;rounded=0;orthogonalLoop=1;jettySize=auto;html=1;exitX=0.5;exitY=1;exitDx=0;exitDy=0;entryX=0.5;entryY=0;entryDx=0;entryDy=0;" edge="1" parent="1" source="W_dLFb4CMjLGKehjsULo-7" target="W_dLFb4CMjLGKehjsULo-1">
          <mxGeometry relative="1" as="geometry" />
        </mxCell>
        <mxCell id="W_dLFb4CMjLGKehjsULo-7" value="线程4" style="ellipse;whiteSpace=wrap;html=1;" vertex="1" parent="1">
          <mxGeometry x="460" y="1210" width="73" height="30" as="geometry" />
        </mxCell>
        <mxCell id="W_dLFb4CMjLGKehjsULo-12" value="" style="rounded=1;whiteSpace=wrap;html=1;" vertex="1" parent="1">
          <mxGeometry x="78" y="1520" width="312" height="50" as="geometry" />
        </mxCell>
        <mxCell id="W_dLFb4CMjLGKehjsULo-13" value="base" style="ellipse;whiteSpace=wrap;html=1;" vertex="1" parent="1">
          <mxGeometry x="139.5" y="1525" width="90.5" height="15" as="geometry" />
        </mxCell>
        <mxCell id="W_dLFb4CMjLGKehjsULo-14" value="LongAddr" style="text;html=1;strokeColor=none;fillColor=none;align=center;verticalAlign=middle;whiteSpace=wrap;rounded=0;" vertex="1" parent="1">
          <mxGeometry x="308" y="1535" width="40" height="20" as="geometry" />
        </mxCell>
        <mxCell id="W_dLFb4CMjLGKehjsULo-15" style="rounded=0;orthogonalLoop=1;jettySize=auto;html=1;exitX=0.5;exitY=1;exitDx=0;exitDy=0;entryX=0.112;entryY=-0.06;entryDx=0;entryDy=0;entryPerimeter=0;" edge="1" parent="1" source="W_dLFb4CMjLGKehjsULo-16" target="W_dLFb4CMjLGKehjsULo-12">
          <mxGeometry relative="1" as="geometry" />
        </mxCell>
        <mxCell id="W_dLFb4CMjLGKehjsULo-16" value="线程1" style="ellipse;whiteSpace=wrap;html=1;" vertex="1" parent="1">
          <mxGeometry x="85" y="1420" width="73" height="30" as="geometry" />
        </mxCell>
        <mxCell id="W_dLFb4CMjLGKehjsULo-17" style="edgeStyle=none;rounded=0;orthogonalLoop=1;jettySize=auto;html=1;exitX=0.5;exitY=1;exitDx=0;exitDy=0;" edge="1" parent="1" source="W_dLFb4CMjLGKehjsULo-18">
          <mxGeometry relative="1" as="geometry">
            <mxPoint x="130" y="1519" as="targetPoint" />
          </mxGeometry>
        </mxCell>
        <mxCell id="W_dLFb4CMjLGKehjsULo-18" value="线程2" style="ellipse;whiteSpace=wrap;html=1;" vertex="1" parent="1">
          <mxGeometry x="145" y="1420" width="73" height="30" as="geometry" />
        </mxCell>
        <mxCell id="W_dLFb4CMjLGKehjsULo-19" style="edgeStyle=none;rounded=0;orthogonalLoop=1;jettySize=auto;html=1;exitX=0.5;exitY=1;exitDx=0;exitDy=0;" edge="1" parent="1" source="W_dLFb4CMjLGKehjsULo-20">
          <mxGeometry relative="1" as="geometry">
            <mxPoint x="270" y="1519" as="targetPoint" />
          </mxGeometry>
        </mxCell>
        <mxCell id="W_dLFb4CMjLGKehjsULo-20" value="线程3" style="ellipse;whiteSpace=wrap;html=1;" vertex="1" parent="1">
          <mxGeometry x="205" y="1420" width="73" height="30" as="geometry" />
        </mxCell>
        <mxCell id="W_dLFb4CMjLGKehjsULo-21" style="edgeStyle=none;rounded=0;orthogonalLoop=1;jettySize=auto;html=1;exitX=0.5;exitY=1;exitDx=0;exitDy=0;" edge="1" parent="1" source="W_dLFb4CMjLGKehjsULo-22">
          <mxGeometry relative="1" as="geometry">
            <mxPoint x="280" y="1520" as="targetPoint" />
          </mxGeometry>
        </mxCell>
        <mxCell id="W_dLFb4CMjLGKehjsULo-22" value="线程4" style="ellipse;whiteSpace=wrap;html=1;" vertex="1" parent="1">
          <mxGeometry x="268" y="1420" width="73" height="30" as="geometry" />
        </mxCell>
        <mxCell id="W_dLFb4CMjLGKehjsULo-23" value="cell" style="ellipse;whiteSpace=wrap;html=1;" vertex="1" parent="1">
          <mxGeometry x="84" y="1540" width="76" height="20" as="geometry" />
        </mxCell>
        <mxCell id="W_dLFb4CMjLGKehjsULo-24" value="cell" style="ellipse;whiteSpace=wrap;html=1;" vertex="1" parent="1">
          <mxGeometry x="212" y="1550" width="76" height="20" as="geometry" />
        </mxCell>
        <mxCell id="W_dLFb4CMjLGKehjsULo-26" value="&lt;p style=&quot;line-height: 170%&quot;&gt;内部维护多个Cell变量 ， 每个Cell里面， 有一个初始值为0的 long 型变量。多个线程争夺同一个Cell原子变量时失败 ， 它并不是在当前Cell 变量上一直自旋CAS重试 ，而是尝试在其它Cell的变量上进行CAS尝试， 最后获取LongAddr 当前值时 ， 是把所有的Cell变量 的value 值累加后在加上base 返回的&lt;/p&gt;" style="text;html=1;strokeColor=none;fillColor=none;align=left;verticalAlign=top;whiteSpace=wrap;rounded=0;" vertex="1" parent="1">
          <mxGeometry x="460" y="1440" width="300" height="150" as="geometry" />
        </mxCell>
        <mxCell id="W_dLFb4CMjLGKehjsULo-27" value="LockSupport&amp;nbsp; 主要作用是挂起和唤醒线程" style="text;html=1;strokeColor=none;fillColor=none;align=left;verticalAlign=middle;whiteSpace=wrap;rounded=0;" vertex="1" parent="1">
          <mxGeometry x="80" y="1640" width="660" height="40" as="geometry" />
        </mxCell>
      </root>
    </mxGraphModel>
  </diagram>
</mxfile>
